<svg width="16" height="16" viewBox="0 0 16 16" fill="none" xmlns="http://www.w3.org/2000/svg">
<path d="M13.9468 8.41333C13.9151 8.3315 13.8675 8.25674 13.8068 8.19333L11.8068 6.19333C11.6813 6.0678 11.511 5.99727 11.3335 5.99727C11.156 5.99727 10.9857 6.0678 10.8602 6.19333C10.7346 6.31887 10.6641 6.48913 10.6641 6.66667C10.6641 6.8442 10.7346 7.01446 10.8602 7.14L11.7268 8H5.3335C5.15668 8 4.98712 7.92976 4.86209 7.80474C4.73707 7.67971 4.66683 7.51014 4.66683 7.33333V4.66667C4.66683 4.48986 4.59659 4.32029 4.47157 4.19526C4.34654 4.07024 4.17697 4 4.00016 4C3.82335 4 3.65378 4.07024 3.52876 4.19526C3.40373 4.32029 3.3335 4.48986 3.3335 4.66667V7.33333C3.3335 7.86377 3.54421 8.37247 3.91928 8.74755C4.29436 9.12262 4.80306 9.33333 5.3335 9.33333H11.7268L10.8602 10.1933C10.7977 10.2553 10.7481 10.329 10.7142 10.4103C10.6804 10.4915 10.663 10.5787 10.663 10.6667C10.663 10.7547 10.6804 10.8418 10.7142 10.9231C10.7481 11.0043 10.7977 11.078 10.8602 11.14C10.9221 11.2025 10.9959 11.2521 11.0771 11.2859C11.1584 11.3198 11.2455 11.3372 11.3335 11.3372C11.4215 11.3372 11.5086 11.3198 11.5899 11.2859C11.6711 11.2521 11.7449 11.2025 11.8068 11.14L13.8068 9.14C13.8675 9.0766 13.9151 9.00183 13.9468 8.92C14.0135 8.75769 14.0135 8.57564 13.9468 8.41333Z" fill="#AFB5BB"/>
</svg>
