<svg width="10" height="6" viewBox="0 0 10 6" fill="none" xmlns="http://www.w3.org/2000/svg">
<path d="M5.47363 5.35991L9.2403 1.58657C9.30279 1.5246 9.35238 1.45086 9.38623 1.36962C9.42007 1.28839 9.4375 1.20125 9.4375 1.11324C9.4375 1.02523 9.42007 0.938095 9.38623 0.856855C9.35238 0.775616 9.30279 0.701882 9.2403 0.639907C9.11539 0.515739 8.94642 0.446045 8.7703 0.446045C8.59418 0.446045 8.42521 0.515739 8.3003 0.639907L4.96697 3.93991L1.66697 0.639906C1.54206 0.515739 1.37309 0.446045 1.19697 0.446045C1.02084 0.446045 0.851876 0.515739 0.726968 0.639906C0.663976 0.701649 0.613862 0.775279 0.579531 0.85653C0.5452 0.93778 0.527334 1.02503 0.526968 1.11324C0.527334 1.20144 0.5452 1.2887 0.579531 1.36995C0.613862 1.4512 0.663976 1.52483 0.726968 1.58657L4.49363 5.35991C4.55606 5.42758 4.63183 5.48158 4.71616 5.51852C4.8005 5.55546 4.89157 5.57453 4.98363 5.57453C5.0757 5.57453 5.16677 5.55546 5.25111 5.51852C5.33544 5.48158 5.41121 5.42758 5.47363 5.35991Z" fill="#888D94"/>
</svg>
