<svg width="16" height="16" viewBox="0 0 16 16" fill="none" xmlns="http://www.w3.org/2000/svg">
<path d="M11 7.41C10.8674 7.41 10.7402 7.46268 10.6464 7.55645C10.5527 7.65021 10.5 7.77739 10.5 7.91V11.5C10.5 11.6326 10.4473 11.7598 10.3536 11.8536C10.2598 11.9473 10.1326 12 10 12H4.5C4.36739 12 4.24021 11.9473 4.14645 11.8536C4.05268 11.7598 4 11.6326 4 11.5V6C4 5.86739 4.05268 5.74021 4.14645 5.64645C4.24021 5.55268 4.36739 5.5 4.5 5.5H8.09C8.22261 5.5 8.34979 5.44732 8.44355 5.35355C8.53732 5.25979 8.59 5.13261 8.59 5C8.59 4.86739 8.53732 4.74021 8.44355 4.64645C8.34979 4.55268 8.22261 4.5 8.09 4.5H4.5C4.10218 4.5 3.72064 4.65804 3.43934 4.93934C3.15804 5.22064 3 5.60218 3 6V11.5C3 11.8978 3.15804 12.2794 3.43934 12.5607C3.72064 12.842 4.10218 13 4.5 13H10C10.3978 13 10.7794 12.842 11.0607 12.5607C11.342 12.2794 11.5 11.8978 11.5 11.5V7.91C11.5 7.77739 11.4473 7.65021 11.3536 7.55645C11.2598 7.46268 11.1326 7.41 11 7.41ZM12.96 3.31C12.9093 3.18783 12.8122 3.09074 12.69 3.04C12.6299 3.01438 12.5653 3.00079 12.5 3H9.5C9.36739 3 9.24021 3.05268 9.14645 3.14645C9.05268 3.24021 9 3.36739 9 3.5C9 3.63261 9.05268 3.75979 9.14645 3.85355C9.24021 3.94732 9.36739 4 9.5 4H11.295L6.145 9.145C6.09814 9.19148 6.06094 9.24678 6.03555 9.30771C6.01017 9.36864 5.9971 9.43399 5.9971 9.5C5.9971 9.56601 6.01017 9.63136 6.03555 9.69229C6.06094 9.75322 6.09814 9.80852 6.145 9.855C6.19148 9.90186 6.24678 9.93906 6.30771 9.96445C6.36864 9.98983 6.43399 10.0029 6.5 10.0029C6.56601 10.0029 6.63136 9.98983 6.69229 9.96445C6.75322 9.93906 6.80852 9.90186 6.855 9.855L12 4.705V6.5C12 6.63261 12.0527 6.75979 12.1464 6.85355C12.2402 6.94732 12.3674 7 12.5 7C12.6326 7 12.7598 6.94732 12.8536 6.85355C12.9473 6.75979 13 6.63261 13 6.5V3.5C12.9992 3.43466 12.9856 3.37011 12.96 3.31Z" fill="#888D94"/>
</svg>
