<svg width="16" height="16" viewBox="0 0 16 16" fill="none" xmlns="http://www.w3.org/2000/svg">
<path d="M8.47339 5.66066L12.2401 9.434C12.3025 9.49597 12.3521 9.5697 12.386 9.65094C12.4198 9.73218 12.4373 9.81932 12.4373 9.90733C12.4373 9.99534 12.4198 10.0825 12.386 10.1637C12.3521 10.245 12.3025 10.3187 12.2401 10.3807C12.1151 10.5048 11.9462 10.5745 11.7701 10.5745C11.5939 10.5745 11.425 10.5048 11.3001 10.3807L7.96672 7.08066L4.66672 10.3807C4.54182 10.5048 4.37285 10.5745 4.19672 10.5745C4.0206 10.5745 3.85163 10.5048 3.72672 10.3807C3.66373 10.3189 3.61362 10.2453 3.57929 10.164C3.54496 10.0828 3.52709 9.99553 3.52672 9.90733C3.52709 9.81912 3.54496 9.73187 3.57929 9.65062C3.61362 9.56937 3.66373 9.49574 3.72672 9.434L7.49339 5.66066C7.55582 5.59299 7.63159 5.53899 7.71592 5.50205C7.80025 5.46511 7.89132 5.44604 7.98339 5.44604C8.07546 5.44604 8.16653 5.46511 8.25086 5.50205C8.33519 5.53899 8.41096 5.59299 8.47339 5.66066Z" fill="#888D94"/>
</svg>
